<svg width="60" height="78" viewBox="0 0 60 78" fill="none" xmlns="http://www.w3.org/2000/svg">
<path d="M12.1597 78H46.9832C51.2438 78 54.6863 74.5527 54.6863 70.297V16.2588H4.46146V70.297C4.46146 74.5527 7.91038 78 12.1597 78ZM41.6088 26.0458C41.6088 24.6037 42.7733 23.4281 44.2218 23.4281C45.6639 23.4281 46.8348 24.6039 46.8348 26.0458V67.8964C46.8348 69.3449 45.6639 70.5157 44.2218 70.5157C42.7733 70.5157 41.6088 69.3449 41.6088 67.8964V26.0458V26.0458ZM27.0419 26.0458C27.0419 24.6037 28.2079 23.4281 29.6548 23.4281C31.0969 23.4281 32.2678 24.6039 32.2678 26.0458V67.8964C32.2678 69.3449 31.0969 70.5157 29.6548 70.5157C28.2079 70.5157 27.0419 69.3449 27.0419 67.8964V26.0458ZM12.4832 26.0458C12.4832 24.6037 13.6476 23.4281 15.0895 23.4281C16.5314 23.4281 17.7089 24.6039 17.7089 26.0458V67.8964C17.7089 69.3449 16.5314 70.5157 15.0895 70.5157C13.6474 70.5157 12.4832 69.3449 12.4832 67.8964V26.0458Z" fill="white"/>
<path d="M49.7332 4.10869H39.1297C38.8749 1.80131 36.9382 0 34.5686 0H24.5872C22.2045 0 20.2726 1.80131 20.0195 4.10869H9.4228C4.22642 4.10869 0.029332 8.31863 0 13.5022H59.1594C59.1397 8.31884 54.9362 4.10869 49.7332 4.10869Z" fill="white"/>
</svg>
