<svg width="259" height="296" viewBox="0 0 259 296" fill="none" xmlns="http://www.w3.org/2000/svg">
<path d="M129.5 70.8374C199.317 70.8374 255.915 54.9799 255.915 35.4187C255.915 15.8575 199.317 0 129.5 0C59.6832 0 3.08545 15.8575 3.08545 35.4187C3.08545 54.9799 59.6832 70.8374 129.5 70.8374Z" fill="#285680"/>
<path d="M237.863 109.292C237.158 109.67 236.432 110.008 235.688 110.304C234.171 110.961 232.553 111.619 230.834 112.277C232.503 111.568 234.121 110.911 235.688 110.253C236.447 109.949 237.155 109.595 237.863 109.292Z" fill="#90BAE1"/>
<path d="M258.999 119.769C258.999 139.828 201.035 156.051 129.5 156.051C57.9654 156.051 0.0020752 139.828 0.0020752 119.769C0.0020752 114.171 4.45676 108.936 12.4338 104.219C33.2051 91.9354 77.8044 83.4869 129.5 83.4869C181.195 83.4869 225.794 91.9354 246.566 104.219C254.544 108.936 258.999 114.171 258.999 119.769Z" fill="#285680"/>
<path d="M258.999 207.907C258.999 227.944 201.051 244.186 129.5 244.186C57.9488 244.186 0.000635263 227.943 0.000635263 207.907C-0.00985321 207.017 0.109598 206.131 0.354329 205.276C2.5336 199.542 6.87233 194.891 12.4394 192.322C33.2217 180.027 77.821 171.577 129.499 171.577C181.178 171.577 225.777 180.027 246.559 192.322C252.127 194.891 256.466 199.541 258.645 205.276C258.89 206.131 259.009 207.017 258.999 207.907Z" fill="#285680"/>
<path d="M255.915 35.4186V91.0766C255.915 96.541 251.566 101.652 243.779 106.256C241.871 107.389 239.896 108.403 237.863 109.292C237.155 109.596 236.447 109.95 235.688 110.253C234.121 110.911 232.503 111.569 230.834 112.277C224.678 114.512 218.397 116.387 212.023 117.894C210.304 118.299 208.585 118.703 206.815 119.108H206.714C204.438 119.615 202.112 120.07 199.685 120.525C197.966 120.879 196.196 121.183 194.376 121.487C191.241 121.993 188.005 122.499 184.718 122.954C166.412 125.369 147.964 126.553 129.5 126.496C111.036 126.553 92.5882 125.37 74.2823 122.954C70.9953 122.499 67.7591 121.993 64.6242 121.487C62.8039 121.183 61.0342 120.88 59.3147 120.525H59.2133C56.8365 120.07 54.5611 119.615 52.2857 119.108C50.4653 118.755 48.6957 118.349 46.9762 117.894C40.6149 116.405 34.3498 114.529 28.2164 112.277C26.5475 111.62 24.8793 110.911 23.3113 110.253C22.5526 109.95 21.8446 109.596 21.1367 109.292C19.1036 108.403 17.1277 107.389 15.2206 106.256C7.43347 101.652 3.08484 96.4909 3.08484 91.0766V35.4186C3.08484 55.0002 59.6678 70.8373 129.499 70.8373C199.331 70.8373 255.915 54.9996 255.915 35.4186Z" fill="#90BAE1"/>
<path d="M258.998 119.769V176.784C258.998 182.382 254.544 187.617 246.567 192.334C244.613 193.495 242.588 194.533 240.506 195.444C239.78 195.755 239.056 196.118 238.279 196.429C236.673 197.103 235.016 197.776 233.306 198.502C227 200.792 220.566 202.713 214.037 204.255C212.276 204.67 210.515 205.084 208.701 205.499H208.598C206.267 206.017 203.884 206.484 201.398 206.95C199.636 207.313 197.824 207.624 195.959 207.935C192.747 208.453 189.432 208.972 186.066 209.438C167.313 211.913 148.415 213.125 129.501 213.067C110.586 213.125 91.6885 211.913 72.9357 209.438C69.5689 208.972 66.2534 208.453 63.0422 207.935C61.1776 207.624 59.3648 207.313 57.6033 206.95H57.4996C55.0651 206.484 52.7344 206.017 50.403 205.499C48.5384 205.136 46.7256 204.722 44.9641 204.255C38.4473 202.729 32.0295 200.808 25.7464 198.502C24.0373 197.828 22.3277 197.103 20.7218 196.429C19.9445 196.118 19.2196 195.755 18.4948 195.444C16.4122 194.534 14.3885 193.495 12.4342 192.334C4.45652 187.617 0.00183105 182.33 0.00183105 176.784V119.769C0.00183105 139.828 57.9652 156.051 129.5 156.051C201.035 156.051 258.998 139.828 258.998 119.769Z" fill="#90BAE1"/>
<path d="M258.999 207.907V259.719C258.999 265.336 254.549 270.547 246.56 275.252C244.603 276.42 242.576 277.467 240.492 278.389C239.784 278.693 239.076 279.047 238.267 279.351C236.649 280.008 235.031 280.717 233.312 281.425C227.004 283.712 220.572 285.637 214.046 287.194C212.277 287.598 210.507 288.003 208.686 288.408H208.585C206.259 288.965 203.882 289.42 201.404 289.876C199.635 290.23 197.814 290.533 195.943 290.888C192.758 291.394 189.42 291.9 186.083 292.355C167.324 294.833 148.421 296.05 129.5 295.998C110.579 296.05 91.6751 294.833 72.9171 292.355C69.58 291.9 66.2423 291.394 63.0568 290.888C61.1857 290.533 59.3654 290.23 57.5958 289.876H57.4944C55.0675 289.42 52.7414 288.965 50.4152 288.408C48.5442 288.054 46.7239 287.649 44.9542 287.194C38.4403 285.654 32.0243 283.728 25.7394 281.425C24.0198 280.768 22.3516 280.008 20.7335 279.351C19.9247 279.047 19.2167 278.693 18.5087 278.389C16.4244 277.467 14.3984 276.42 12.4406 275.252C4.45127 270.547 0.00124561 265.284 0.00124561 259.719V207.907C-0.00924286 207.017 0.110208 206.131 0.354939 205.276C5.05785 224.149 61.0342 238.974 129.5 238.974C197.966 238.974 253.943 224.149 258.645 205.276C258.891 206.131 259.009 207.017 258.999 207.907Z" fill="#90BAE1"/>
<path d="M177.27 139.289C178.988 140.162 180.069 141.928 180.066 143.857V170.662C179.882 194.891 168.8 217.747 149.895 232.887L133.235 246.614C131.066 248.405 127.933 248.405 125.765 246.614L109.105 232.887C90.1998 217.747 79.1169 194.891 78.934 170.662V143.857C78.9305 141.928 80.0114 140.162 81.7291 139.289L124.977 117.454C127.821 116.016 131.179 116.016 134.023 117.454L177.27 139.289Z" fill="#46B29D"/>
<path d="M129.5 207.452C146.256 207.452 159.84 193.86 159.84 177.093C159.84 160.326 146.256 146.734 129.5 146.734C112.744 146.734 99.1604 160.326 99.1604 177.093C99.1604 193.86 112.744 207.452 129.5 207.452Z" fill="white"/>
<path d="M124.443 192.272C123.102 192.274 121.815 191.74 120.869 190.789L115.812 185.73C113.868 183.749 113.882 180.571 115.844 178.608C117.806 176.644 120.982 176.63 122.962 178.576L124.443 180.058L136.038 168.456C138.018 166.511 141.194 166.525 143.156 168.488C145.118 170.451 145.133 173.629 143.188 175.61L128.018 190.789C127.071 191.74 125.785 192.273 124.443 192.272Z" fill="#24AE5F"/>
</svg>
