<svg width="118" height="118" viewBox="0 0 118 118" fill="none" xmlns="http://www.w3.org/2000/svg">
<path d="M88.7202 58.9999L116.441 86.7208C118.52 88.7994 118.52 92.1696 116.441 94.2479L94.248 116.441C92.1694 118.52 88.7993 118.52 86.7209 116.441L59.0001 88.7201L31.2788 116.441C29.2002 118.52 25.8301 118.52 23.7517 116.441L1.55895 94.2484C-0.51965 92.1698 -0.51965 88.7996 1.55895 86.7213L29.2798 59.0003L1.55895 31.279C-0.51965 29.2004 -0.51965 25.8302 1.55895 23.7518L23.752 1.55895C25.8306 -0.519653 29.2007 -0.519653 31.2791 1.55895L58.9999 29.2799L86.7207 1.55895C88.7993 -0.519653 92.1694 -0.519653 94.2478 1.55895L116.441 23.7518C118.519 25.8304 118.519 29.2006 116.441 31.279L88.7202 58.9999Z" fill="#FF6465"/>
</svg>
