<svg width="73" height="47" viewBox="0 0 73 47" fill="none" xmlns="http://www.w3.org/2000/svg">
<path d="M72.2267 21.7507C71.5773 20.8624 56.1049 0 36.344 0C16.583 0 1.10992 20.8624 0.461261 21.7498C-0.153754 22.5926 -0.153754 23.7356 0.461261 24.5783C1.10992 25.4666 16.583 46.329 36.344 46.329C56.1049 46.329 71.5773 25.4665 72.2267 24.579C72.8425 23.7364 72.8425 22.5926 72.2267 21.7507ZM36.344 41.5364C21.7879 41.5364 9.18079 27.6896 5.44882 23.1629C9.17596 18.6322 21.7567 4.79263 36.344 4.79263C50.8993 4.79263 63.5056 18.637 67.2391 23.1661C63.512 27.6967 50.9313 41.5364 36.344 41.5364Z" fill="white"/>
<path d="M36.3439 8.78662C28.416 8.78662 21.9659 15.2368 21.9659 23.1647C21.9659 31.0926 28.416 37.5427 36.3439 37.5427C44.2719 37.5427 50.722 31.0926 50.722 23.1647C50.722 15.2368 44.2719 8.78662 36.3439 8.78662ZM36.3439 32.7499C31.0584 32.7499 26.7587 28.4501 26.7587 23.1647C26.7587 17.8792 31.0585 13.5794 36.3439 13.5794C41.6294 13.5794 45.9292 17.8792 45.9292 23.1647C45.9292 28.4501 41.6295 32.7499 36.3439 32.7499Z" fill="white"/>
<circle cx="36.5" cy="23.5" r="10.5" fill="white"/>
</svg>
