<svg width="41" height="41" viewBox="0 0 41 41" fill="none" xmlns="http://www.w3.org/2000/svg">
<path d="M20.5 0C9.19616 0 0 9.19616 0 20.5C0 31.8038 9.19616 41 20.5 41C31.8038 41 41 31.8038 41 20.5C41 9.19616 31.8038 0 20.5 0ZM19.2988 10.0623C17.4714 9.9838 15.6625 9.72699 13.9352 9.30939C14.2111 8.65563 14.5104 8.02783 14.8332 7.43288C16.1576 4.99237 17.7836 3.27976 19.2988 2.65947V10.0623ZM19.2988 12.4665V19.2988H11.7962C11.9019 16.6322 12.3564 13.9849 13.1081 11.5769C15.1 12.0787 17.1911 12.3824 19.2988 12.4665ZM19.2988 21.7012V28.5335C17.1911 28.6176 15.1 28.9213 13.1081 29.4231C12.3564 27.0151 11.9019 24.3678 11.7962 21.7012H19.2988ZM19.2988 30.9377V38.3405C17.7836 37.7202 16.1576 36.0076 14.8332 33.5671C14.5104 32.9722 14.2111 32.3444 13.9352 31.6906C15.6625 31.273 17.4711 31.0162 19.2988 30.9377ZM21.7012 30.9377C23.5286 31.0162 25.3375 31.273 27.0648 31.6906C26.7889 32.3444 26.4896 32.9722 26.1668 33.5671C24.8424 36.0076 23.2164 37.7202 21.7012 38.3405V30.9377ZM21.7012 28.5335V21.7012H29.2038C29.0981 24.3678 28.6436 27.0151 27.8919 29.4231C25.9 28.9213 23.8089 28.6176 21.7012 28.5335ZM21.7012 19.2988V12.4665C23.8089 12.3824 25.9 12.0787 27.8919 11.5769C28.6436 13.9849 29.0981 16.6322 29.2038 19.2988H21.7012ZM21.7012 10.0623V2.65947C23.2164 3.27976 24.8424 4.99237 26.1668 7.43288C26.4896 8.02783 26.7889 8.65563 27.0648 9.30939C25.3375 9.72699 23.5286 9.9838 21.7012 10.0623ZM28.2782 6.28707C27.6767 5.17849 27.0232 4.20129 26.3344 3.36766C28.7362 4.18784 30.9117 5.50005 32.7413 7.18295C31.6978 7.74193 30.5733 8.2274 29.3902 8.63311C29.0546 7.81794 28.6836 7.03374 28.2782 6.28707ZM12.7218 6.28707C12.3164 7.03374 11.9454 7.81794 11.6098 8.63311C10.4267 8.2274 9.3022 7.74162 8.25868 7.18295C10.0883 5.50005 12.2638 4.18784 14.6656 3.36766C13.9768 4.20129 13.3236 5.17818 12.7218 6.28707ZM10.7971 10.8909C9.97723 13.5138 9.4952 16.3732 9.39135 19.2988H2.44332C2.70045 15.3947 4.19972 11.8243 6.55077 8.9822C7.85548 9.73043 9.28437 10.3704 10.7971 10.8909ZM9.39135 21.7012C9.4952 24.6272 9.97723 27.4862 10.7971 30.1091C9.28437 30.6296 7.85548 31.2696 6.55077 32.0178C4.19972 29.1757 2.70045 25.6053 2.44332 21.7012H9.39135ZM11.6098 32.3669C11.9454 33.1821 12.3164 33.9663 12.7218 34.7129C13.3236 35.8215 13.9768 36.7987 14.6656 37.6323C12.2638 36.8122 10.0883 35.4999 8.259 33.8171C9.30189 33.2584 10.4267 32.7726 11.6098 32.3669ZM28.2782 34.7129C28.6836 33.9663 29.0546 33.1821 29.3902 32.3669C30.5733 32.7726 31.6978 33.2584 32.7413 33.8171C30.9117 35.4999 28.7362 36.8122 26.3344 37.6323C27.0232 36.7987 27.6764 35.8218 28.2782 34.7129ZM30.2029 30.1091C31.0228 27.4862 31.5048 24.6268 31.6087 21.7012H38.5567C38.2996 25.6053 36.8003 29.1757 34.4492 32.0178C33.1445 31.2696 31.7156 30.6296 30.2029 30.1091ZM31.6087 19.2988C31.5048 16.3728 31.0228 13.5138 30.2029 10.8909C31.7156 10.3704 33.1445 9.73043 34.4492 8.9822C36.8003 11.8243 38.2996 15.3947 38.5567 19.2988H31.6087Z" fill="#004973"/>
</svg>
