<svg width="133" height="133" viewBox="0 0 133 133" fill="none" xmlns="http://www.w3.org/2000/svg">
<circle cx="66.5" cy="66.5" r="66.5" fill="#2484AD"/>
<path d="M63.419 54L70.619 54L70.619 99L63.419 99L63.419 54ZM61.889 40.32C61.889 38.94 62.339 37.77 63.239 36.81C64.199 35.79 65.399 35.28 66.839 35.28C68.279 35.28 69.509 35.79 70.529 36.81C71.549 37.77 72.059 38.94 72.059 40.32C72.059 41.7 71.549 42.84 70.529 43.74C69.509 44.64 68.279 45.09 66.839 45.09C65.399 45.09 64.199 44.64 63.239 43.74C62.339 42.84 61.889 41.7 61.889 40.32Z" fill="white"/>
</svg>
