<svg width="244" height="222" viewBox="0 0 244 222" fill="none" xmlns="http://www.w3.org/2000/svg">
<path d="M236.777 202.863H19.9738C18.1463 202.862 16.5532 201.668 16.1108 199.966L14.1194 192.31C13.8216 191.167 14.0877 189.954 14.842 189.026C15.5962 188.097 16.7558 187.553 17.9824 187.553H238.768C239.995 187.553 241.153 188.097 241.907 189.026C242.663 189.954 242.929 191.167 242.631 192.31L240.64 199.966C240.196 201.668 238.604 202.862 236.777 202.863Z" fill="#65DDB9"/>
<path d="M228.656 222H28.0945C26.2001 222.002 24.5664 220.721 24.1875 218.938L20.8462 202.864H235.905L232.563 218.938C232.184 220.721 230.551 222.002 228.656 222Z" fill="#46B29D"/>
<path d="M52.1889 141.625C62.264 172.664 92.5723 168.416 128.375 168.416C164.179 168.416 194.487 172.664 204.562 141.625H52.1889Z" fill="#46B29D"/>
<path d="M44.7413 122.486H212.009C216.408 122.486 219.975 125.914 219.975 130.142V133.969C219.975 138.197 216.408 141.624 212.009 141.624H44.7413C40.3426 141.624 36.7757 138.197 36.7757 133.969V130.142C36.7757 125.914 40.3426 122.486 44.7413 122.486Z" fill="#65DDB9"/>
<path d="M116.427 168.493H140.322V187.553H116.427V168.493Z" fill="#527F72"/>
<path d="M116.427 99.522H140.322V122.486H116.427V99.522Z" fill="#527F72"/>
<path d="M112.971 84.2131C111.736 84.2148 110.573 84.7636 109.815 85.6985C109.057 86.6351 108.789 87.8545 109.092 89.0045C111.357 97.4592 119.291 103.368 128.375 103.368C137.46 103.368 145.392 97.4592 147.659 89.0045C147.96 87.8545 147.694 86.6351 146.936 85.6985C146.178 84.7636 145.013 84.2148 143.78 84.2131H112.971Z" fill="#46B29D"/>
<path d="M138.133 17.8457C133.104 19.6494 128.52 22.4389 124.671 26.0362C118.988 17.4054 108.054 13.4185 97.8433 16.2554C87.6325 19.0922 80.5991 28.0686 80.585 38.283V40.1968C80.585 42.3105 78.8016 44.0245 76.6022 44.0245H68.6365C66.4372 44.0245 64.6537 42.3105 64.6537 40.1968V39.5651C64.3858 18.452 81.6019 0.944771 103.551 0.0098755C117.539 -0.294982 130.665 6.47623 138.133 17.8457Z" fill="#B0D3F0"/>
<path d="M112.444 53.5936V38.7505C112.541 34.8991 109.765 31.5304 105.842 30.7395C103.527 30.3601 101.155 30.98 99.3571 32.4331C97.5613 33.8863 96.5216 36.0271 96.5145 38.283V40.1968C96.5145 42.3105 94.7311 44.0245 92.5317 44.0245H84.5661C82.3667 44.0245 80.585 42.3105 80.585 40.1968V38.283C80.5991 28.0686 87.6325 19.0922 97.8433 16.2554C108.054 13.4185 118.988 17.4054 124.671 26.0362C116.862 33.2393 112.446 43.1912 112.444 53.5936Z" fill="#90BAE1"/>
<path d="M192.097 54.7419V55.5074C192.097 57.6211 190.314 59.3351 188.114 59.3351H180.149C177.949 59.3351 176.166 57.6211 176.166 55.5074V53.5936C176.146 40.9183 165.46 30.648 152.271 30.6294C149.372 30.6294 146.497 31.1341 143.789 32.1215V32.1604C134.512 35.5274 128.374 44.0634 128.375 53.5936V84.2131H112.444V53.5936C112.446 43.1912 116.862 33.2393 124.671 26.0362C128.52 22.4389 133.104 19.6495 138.133 17.8457C143.708 15.7744 149.701 14.9563 155.656 15.4526C176.543 17.529 192.342 34.562 192.097 54.7419Z" fill="#B0D3F0"/>
<path d="M176.166 53.5936V55.5074C176.166 57.6211 174.382 59.3351 172.183 59.3351H164.219C162.02 59.3351 160.236 57.6211 160.236 55.5074V54.0611C160.333 50.2097 157.556 46.841 153.633 46.0501C151.317 45.6707 148.945 46.2889 147.149 47.7437C145.352 49.1969 144.312 51.336 144.305 53.5936V84.2131H128.375V53.5936C128.374 44.0634 134.512 35.5274 143.789 32.1605V32.1215C146.497 31.1341 149.372 30.6294 152.271 30.6294C165.46 30.648 176.146 40.9183 176.166 53.5936Z" fill="#90BAE1"/>
<path d="M64.6537 68.9025C64.6537 75.2452 59.3051 80.3855 52.7052 80.3855C46.1071 80.3855 40.7585 75.2452 40.7585 68.9025C40.7585 62.5615 46.1071 57.4213 52.7052 57.4213C59.3051 57.4213 64.6537 62.5615 64.6537 68.9025Z" fill="#90BAE1"/>
<path d="M212.009 91.8684C212.009 98.2095 206.661 103.35 200.061 103.35C193.463 103.35 188.114 98.2095 188.114 91.8684C188.114 85.5257 193.463 80.3855 200.061 80.3855C206.661 80.3855 212.009 85.5257 212.009 91.8684Z" fill="#90BAE1"/>
<path d="M92.5317 95.6944C92.5317 99.9234 88.9666 103.35 84.5661 103.35C80.1673 103.35 76.6022 99.9234 76.6022 95.6944C76.6022 91.467 80.1673 88.0408 84.5661 88.0408C88.9666 88.0408 92.5317 91.467 92.5317 95.6944Z" fill="#90BAE1"/>
<path d="M231.456 62.016C224.814 55.3915 213.98 55.4754 207.236 62.2038L199.726 69.7138C199.207 70.2322 199.201 71.0664 199.711 71.5769L203.409 75.2741C203.919 75.7846 204.753 75.7781 205.272 75.2597L212.782 67.7497C216.411 64.1204 222.25 64.0752 225.823 67.6485C229.396 71.2219 229.351 77.0607 225.722 80.69L221.967 84.445C221.448 84.9635 221.442 85.7976 221.952 86.3081L225.65 90.0053C226.16 90.5158 226.994 90.5093 227.513 89.9908L231.268 86.2358C237.996 79.4911 238.08 68.6571 231.456 62.016Z" fill="#455A64"/>
<path d="M201.548 69.6584L223.813 91.9234C226.375 94.4852 226.38 98.6334 223.825 101.189L207.169 117.845C204.613 120.4 200.465 120.395 197.904 117.833L175.639 95.568C173.077 93.0062 173.071 88.858 175.627 86.3028L192.283 69.6467C194.838 67.0913 198.986 67.0966 201.548 69.6584Z" fill="#FFC107"/>
<path d="M206.964 95.5191C209.499 93.0055 209.545 88.9417 207.067 86.4425C204.589 83.9433 200.526 83.955 197.991 86.4686C196.239 88.2061 195.615 90.7755 196.383 93.091L190.751 97.3313C190.181 97.7614 190.062 98.5669 190.484 99.1305C190.52 99.1782 190.559 99.2234 190.601 99.2655L194.206 102.87C194.699 103.373 195.511 103.375 196.021 102.875C196.067 102.83 196.11 102.781 196.149 102.729L200.389 97.0977C202.686 97.8472 205.227 97.237 206.964 95.5191Z" fill="#455A64"/>
<path d="M24.493 34.2794C16.6171 39.3744 14.4147 49.9825 19.5697 57.9943L25.3274 66.9189C25.7249 67.535 26.5389 67.7172 27.1456 67.3259L31.5393 64.4913C32.1459 64.0999 32.3155 63.2831 31.918 62.667L26.1604 53.7424C23.3778 49.4296 24.5648 43.7125 28.8112 40.9729C33.0577 38.2333 38.7557 39.5086 41.5382 43.8215L44.417 48.2839C44.8145 48.9 45.6286 49.0822 46.2352 48.6908L50.6288 45.8563C51.2354 45.465 51.405 44.6482 51.0075 44.0321L48.1287 39.5697C42.9543 31.5704 32.3815 29.2041 24.493 34.2794Z" fill="#455A64"/>
<path d="M25.6575 65.1259L52.1166 48.0561C55.1609 46.092 59.2169 46.9615 61.176 49.998L73.9457 69.7916C75.9048 72.8283 75.0249 76.8821 71.9806 78.8461L45.5215 95.916C42.4772 97.88 38.4212 97.0106 36.4622 93.974L23.6924 74.1804C21.7334 71.1438 22.6132 67.09 25.6575 65.1259Z" fill="#FFC107"/>
<path d="M52.0789 65.2843C50.1561 62.2767 46.1935 61.3748 43.228 63.2701C40.2625 65.1654 39.4171 69.14 41.3398 72.1476C42.6688 74.2266 45.0488 75.3783 47.4742 75.116L50.4317 81.5152C50.7321 82.1627 51.4943 82.4493 52.1341 82.1555C52.1883 82.1307 52.2407 82.1019 52.2908 82.0696L56.5747 79.3059C57.17 78.9302 57.3435 78.1364 56.9623 77.5327C56.9276 77.4779 56.889 77.4258 56.8467 77.3767L52.2356 72.0443C53.4525 69.9573 53.3919 67.3446 52.0789 65.2843Z" fill="#455A64"/>
</svg>
