<svg width="45" height="64" viewBox="0 0 45 64" fill="none" xmlns="http://www.w3.org/2000/svg">
<path d="M22.3036 0C12.9234 0.0116994 5.32194 7.73182 5.31042 17.2588V27.8795C5.31042 28.6127 5.89571 29.2071 6.61763 29.2071H11.8463C12.5683 29.2071 13.1536 28.6127 13.1536 27.8795V17.2588C13.1534 12.1262 17.2502 7.96556 22.3036 7.96556C27.3571 7.96556 31.4539 12.1262 31.4539 17.2588V22.5692C31.4539 23.3024 32.0391 23.8968 32.7611 23.8968H37.9896C38.7116 23.8968 39.2969 23.3024 39.2969 22.5692V17.2588C39.2853 7.73182 31.6839 0.0116994 22.3036 0Z" fill="#455A64"/>
<path d="M6.55985 26.5518H38.0473C41.6702 26.5518 44.6072 29.4812 44.6072 33.0949V56.6502C44.6072 60.2639 41.6702 63.1934 38.0473 63.1934H6.55985C2.93695 63.1934 0 60.2639 0 56.6503V33.095C0 29.4812 2.93695 26.5518 6.55985 26.5518Z" fill="#FFC107"/>
<path d="M28.676 41.0082C28.6908 37.4386 25.8499 34.5325 22.3305 34.5175C18.8111 34.5025 15.946 37.384 15.9312 40.9537C15.9209 43.4211 17.2965 45.6792 19.4768 46.7736L18.4928 53.7542C18.3942 54.4611 18.8793 55.1152 19.5763 55.2151C19.6353 55.2236 19.6949 55.2279 19.7546 55.2279H24.8525C25.5564 55.2349 26.1326 54.6619 26.1395 53.948C26.1401 53.8831 26.1359 53.8184 26.1269 53.7542L25.143 46.7736C27.2969 45.6796 28.6624 43.4513 28.676 41.0082Z" fill="#455A64"/>
</svg>
