<svg width="35" height="28" viewBox="0 0 35 28" fill="none" xmlns="http://www.w3.org/2000/svg">
<path d="M17.5 5.65222L5.01744 15.997C5.01744 16.0116 5.01379 16.033 5.00649 16.0623C4.99935 16.0914 4.99554 16.1125 4.99554 16.1274V26.6026C4.99554 26.9808 5.1331 27.3086 5.40813 27.5846C5.68308 27.8607 6.00867 27.9997 6.38498 27.9997H14.721V19.6194H20.2791V28H28.6151C28.9913 28 29.3174 27.8614 29.5919 27.5846C29.867 27.3089 30.005 26.9809 30.005 26.6026V16.1274C30.005 16.0693 29.9971 16.0255 29.9831 15.997L17.5 5.65222Z" fill="#004973"/>
<path d="M34.7586 13.6399L30.0045 9.66803V0.763998C30.0045 0.560443 29.9395 0.393044 29.8088 0.26203C29.6793 0.131168 29.5127 0.0657367 29.3098 0.0657367H25.1417C24.939 0.0657367 24.7725 0.131168 24.6421 0.26203C24.512 0.393044 24.447 0.56052 24.447 0.763998V5.01953L19.1501 0.567399C18.6875 0.189108 18.1374 0 17.5005 0C16.8637 0 16.3137 0.189108 15.8506 0.567399L0.241234 13.6399C0.0965343 13.7561 0.0172269 13.9125 0.0024756 14.1089C-0.0121997 14.3052 0.0383654 14.4767 0.154323 14.6221L1.50027 16.237C1.61623 16.3679 1.768 16.4479 1.95619 16.4772C2.12994 16.4919 2.30368 16.4408 2.47743 16.3245L17.5001 3.73193L32.5228 16.3244C32.6389 16.4259 32.7906 16.4766 32.9788 16.4766H33.044C33.2319 16.4479 33.3834 16.3673 33.4999 16.2367L34.846 14.622C34.9618 14.4763 35.0125 14.3051 34.9974 14.1086C34.9826 13.9127 34.903 13.7563 34.7586 13.6399Z" fill="#004973"/>
</svg>
