<svg width="285" height="266" viewBox="0 0 285 266" fill="none" xmlns="http://www.w3.org/2000/svg">
<path d="M211.269 0C176.885 0 153.371 16.5608 142.5 44.3335C131.63 16.5614 108.115 0 73.7306 0C0.0496287 0 -24.5109 88.6665 28.2153 147.408C46.9303 168.26 137.578 260.98 142.5 266C147.422 260.98 238.07 168.26 256.785 147.408C309.511 88.6671 284.95 0 211.269 0Z" fill="#65DDB9"/>
<path d="M167.06 113.297C167.06 99.6963 156.067 88.6671 142.5 88.6671C128.933 88.6671 117.939 99.6963 117.939 113.297C117.939 122.459 122.984 130.36 130.392 134.601L122.852 172.408H162.148L154.608 134.601C162.016 130.36 167.06 122.459 167.06 113.297Z" fill="#46B29D"/>
</svg>
